<?xml version="1.0" encoding="utf-8"?>
<!-- Generator: Adobe Illustrator 27.3.1, SVG Export Plug-In . SVG Version: 6.00 Build 0)  -->
<svg version="1.1" id="Layer_1" xmlns="http://www.w3.org/2000/svg" xmlns:xlink="http://www.w3.org/1999/xlink" x="0px" y="0px"
	 viewBox="0 0 25 25" style="enable-background:new 0 0 25 25;" xml:space="preserve">
<style type="text/css">
	.st0{fill-rule:evenodd;clip-rule:evenodd;fill:#FFFFFF;}
</style>
<g id="Black-Logo-Square">
	<rect id="Rectangle" class="st0" width="25" height="25"/>
	<path id="_xF8FF_" d="M12.7,7c0.9,0,2-0.6,2.7-1.4c0.6-0.7,1-1.8,1-2.8c0-0.1,0-0.3,0-0.4c-1,0-2.2,0.7-2.9,1.5
		c-0.6,0.7-1.1,1.7-1.1,2.7c0,0.2,0,0.3,0,0.4C12.5,7,12.6,7,12.7,7z M9.6,22.6c1.2,0,1.8-0.8,3.3-0.8c1.5,0,1.9,0.8,3.2,0.8
		c1.3,0,2.2-1.3,3.1-2.5c0.9-1.4,1.3-2.8,1.4-2.9c-0.1,0-2.6-1.1-2.6-4.1c0-2.6,2-3.8,2.1-3.9c-1.3-2-3.3-2-3.9-2
		c-1.5,0-2.7,0.9-3.5,0.9c-0.8,0-1.9-0.9-3.2-0.9c-2.5,0-4.9,2.1-4.9,6c0,2.4,0.9,5,2.1,6.7C7.5,21.5,8.4,22.6,9.6,22.6z"/>
</g>
</svg>
