<?xml version="1.0" encoding="utf-8"?>
<!-- Generator: Adobe Illustrator 26.0.1, SVG Export Plug-In . SVG Version: 6.00 Build 0)  -->
<svg version="1.1" xmlns="http://www.w3.org/2000/svg" xmlns:xlink="http://www.w3.org/1999/xlink" x="0px" y="0px"
	 viewBox="0 0 300 300" style="enable-background:new 0 0 300 300;" xml:space="preserve">
<style type="text/css">
	.st0{fill:#294291;}
	.st1{fill:none;stroke:#FDCD21;stroke-width:6;stroke-miterlimit:10;}
	.st2{fill:#D32729;}
	.st3{fill:#FCCD21;}
	.st4{fill:#258B43;}
	.st5{fill:#71B6E4;}
	.st6{fill:#F68B32;}
</style>
<g id="Circle">
	<circle id="White_Background" class="st0" cx="149" cy="151.5" r="143.5"/>
	<circle class="st1" cx="150" cy="151.5" r="143.5"/>
</g>
<g id="Red">
	<polygon class="st2" points="130.4,34.2 108.4,100.1 74.1,99.4 60.9,128.3 127.4,129.2 160.5,30.8 	"/>
</g>
<g id="Yellow">
	<polygon class="st3" points="264.1,101.6 194.6,101.6 184.4,68.8 152.8,65.4 173,128.8 276.8,129.1 	"/>
</g>
<g id="Green">
	<polygon class="st4" points="245.7,162.1 239.3,131 185.1,169.7 216.7,268.5 239,248 217.6,181.8 	"/>
</g>
<g id="Blue">
	<polygon class="st5" points="148.1,193.6 64,254.4 90.4,269.2 146.6,228.3 174.2,248.8 201.7,233 	"/>
</g>
<g id="Orange">
	<polygon class="st6" points="29.6,106.7 23.2,136.3 78.8,178.2 67.1,210.5 90.3,232.2 112.3,169.4 	"/>
</g>
</svg>
