<?xml version="1.0" encoding="utf-8"?>
<!-- Generator: Adobe Illustrator 26.0.1, SVG Export Plug-In . SVG Version: 6.00 Build 0)  -->
<svg version="1.1" xmlns="http://www.w3.org/2000/svg" xmlns:xlink="http://www.w3.org/1999/xlink" x="0px" y="0px"
	 viewBox="0 0 300 300" style="enable-background:new 0 0 300 300;" xml:space="preserve">
<style type="text/css">
	.st0{fill:#2B4091;}
	.st1{fill:#FDCD21;}
	.st2{fill:#218A1F;}
	.st3{fill:#61BAFD;}
	.st4{fill:#FF8C2B;}
	.st5{fill:#D32629;}
</style>
<g id="Layer_2">
	<rect class="st0" width="300" height="300"/>
</g>
<g id="Layer_1">
	<g>
		<polygon class="st1" points="261.5,103.3 193.2,103.3 183.2,71 152.2,67.7 172,130 274,130.3 		"/>
		<polygon class="st2" points="243.5,162.7 237.1,132.2 183.9,170.2 215,267.4 236.8,247.2 215.8,182.2 		"/>
		<polygon class="st3" points="147.5,193.7 64.9,253.5 90.8,268 146.1,227.8 173.2,248 200.2,232.4 		"/>
		<polygon class="st4" points="31.1,108.4 24.8,137.4 79.4,178.6 67.9,210.4 90.7,231.7 112.4,170 		"/>
		<polygon class="st5" points="130.1,37 108.5,101.9 74.8,101.2 61.8,129.5 127.2,130.4 159.7,33.8 		"/>
	</g>
</g>
</svg>
