<?xml version="1.0" encoding="utf-8"?>
<!-- Generator: Adobe Illustrator 27.4.1, SVG Export Plug-In . SVG Version: 6.00 Build 0)  -->
<svg version="1.1" xmlns="http://www.w3.org/2000/svg" xmlns:xlink="http://www.w3.org/1999/xlink" x="0px" y="0px"
	 viewBox="0 0 260 260" style="enable-background:new 0 0 260 260;" xml:space="preserve">
<style type="text/css">
	.st0{fill:#FFFFFF;}
	.st1{display:none;}
	.st2{display:inline;fill:#2B4091;}
	.st3{fill:#FDCD21;}
	.st4{fill:#218A1F;}
	.st5{fill:#61BAFD;}
	.st6{fill:#FF8C2B;}
	.st7{fill:#D32629;}
</style>
<g id="Layer_3">
	<rect x="1" y="1.5" class="st0" width="257" height="257"/>
</g>
<g id="Layer_2" class="st1">
	<rect x="-20" y="-20" class="st2" width="300" height="300"/>
</g>
<g id="Layer_1">
	<g>
		<polygon class="st3" points="241.5,83.3 173.2,83.3 163.2,51 132.2,47.7 152,110 254,110.3 		"/>
		<polygon class="st4" points="223.5,142.7 217.1,112.2 163.9,150.2 195,247.4 216.8,227.2 195.8,162.2 		"/>
		<polygon class="st5" points="127.5,173.7 44.9,233.5 70.8,248 126.1,207.8 153.2,228 180.2,212.4 		"/>
		<polygon class="st6" points="11.1,88.4 4.8,117.4 59.4,158.6 47.9,190.4 70.7,211.7 92.4,150 		"/>
		<polygon class="st7" points="110.1,17 88.5,81.9 54.8,81.2 41.8,109.5 107.2,110.4 139.7,13.8 		"/>
	</g>
</g>
</svg>
