<?xml version="1.0" encoding="utf-8"?>
<!-- Generator: Adobe Illustrator 26.0.1, SVG Export Plug-In . SVG Version: 6.00 Build 0)  -->
<svg version="1.1" id="Layer_1" xmlns="http://www.w3.org/2000/svg" xmlns:xlink="http://www.w3.org/1999/xlink" x="0px" y="0px"
	 viewBox="0 0 909.5 170" style="enable-background:new 0 0 909.5 170;" xml:space="preserve">
<style type="text/css">
	.st0{fill:#2B4091;}
	.st1{fill:#FDCD21;}
	.st2{fill:#218A1F;}
	.st3{fill:#61BAFD;}
	.st4{fill:#FF8C2B;}
	.st5{fill:#D32629;}
	.st6{display:none;fill:#FFFFFF;}
</style>
<g>
	<g>
		<g>
			<path class="st0" d="M209.8,99.8v-1c0-37.1,23.1-62.6,53.7-62.6c16.8,0,27.6,6.1,37.2,15l-8,10c-7.7-7.3-17-12.8-29.4-12.8
				c-22.5,0-39.8,20.6-39.8,50.2v0.7c0,30.1,17.3,50.5,39.8,50.5c12.6,0,21.5-5.2,30.2-13.6l7.9,9.1c-10.3,10.1-22,16.8-38.8,16.8
				C232.4,162,209.8,137,209.8,99.8z"/>
			<path class="st0" d="M321.3,34.1h12.6v126.2h-12.6V34.1z"/>
			<path class="st0" d="M354.9,133.9v-0.7c0-18.7,13.5-29.4,33.6-29.4c9.6,0,16.6,1.6,23.4,3.7v-5.4c0-14.7-8.6-22.5-23.2-22.5
				c-9.1,0-17,2.8-23.2,6.1l-4-10.3c8.6-4.2,17.5-7.3,28.7-7.3c11,0,19.6,3.1,25.5,9.1c5.6,5.6,8.7,14,8.7,24.6v58.5h-12.4V147
				c-5.4,8.6-14.3,15.2-27.8,15.2C368.9,162.2,354.9,151.9,354.9,133.9z M412,128.6v-11.4c-5.8-2.1-13.1-3.7-22-3.7
				c-14.5,0-22.5,7.5-22.5,19v0.5c0,11.4,8.6,18.5,19.4,18.5C400.8,151.9,412,141.9,412,128.6z"/>
			<path class="st0" d="M440.5,149.1l6.6-9.3c8.6,7.2,17.5,11,26.6,11c10,0,17-5.6,17-14.2v-0.2c0-8-7.5-12.2-19.7-17.3
				c-14.5-6.3-26-12.1-26-26.2v-0.3c0-14.9,12.1-24.8,28.3-24.8c10.3,0,21,4,28.7,9.8l-6.1,9.6c-7-5.1-14.9-8.6-22.9-8.6
				c-9.6,0-15.7,5.6-15.7,12.8v0.3c0,7.7,7.9,11.5,20.3,16.8c15,6.6,25.5,12.9,25.5,26.7v0.3c0,16.3-13.1,26.2-29.5,26.2
				C462.2,161.9,450.1,157.5,440.5,149.1z"/>
			<path class="st0" d="M512.5,144l16.8-22.9c10,8.2,21.3,13.8,33.2,13.8c8.4,0,12.8-3.7,12.8-8.9v-0.2c0-4.9-3.7-7.9-18-12.9
				c-23.1-7.9-39.3-16.3-39.3-38.5v-0.5c0-22.2,17-37.8,43.7-37.8c16.4,0,30.9,4.5,43.7,14.9l-15.9,23.4
				c-8.4-6.5-18.5-11.2-28.5-11.2c-7.2,0-11.2,3.5-11.2,8v0.2c0,5.4,3.8,8.2,19.4,14c23.2,7.5,37.8,17,37.8,37.8v0.3
				c0,23.8-18.4,38.5-44.6,38.5C544.1,162,526.8,156.4,512.5,144z"/>
			<path class="st0" d="M622.1,134.6V90.4h-9.4V65.7h9.4V42.1h30.6v23.6h18.5v24.6h-18.5v37.2c0,5.6,2.6,7.9,7.9,7.9
				c3.5,0,7-0.9,10.5-2.4v24.1c-5.4,3-12.6,4.9-20.8,4.9C633.1,162,622.1,154.7,622.1,134.6z"/>
			<path class="st0" d="M679,133.5v-1.2c0-20.3,13.1-29.9,32.3-29.9c7.5,0,14.7,1.6,19.6,3.7v-2.3c0-9.6-5.6-14.7-16.4-14.7
				c-9.1,0-16.4,2.8-22.4,5.2l-7-22.7c9.3-4.2,20.6-7.3,34.4-7.3c14.7,0,25.2,3.7,32,10.5c6.6,6.6,9.6,16.1,9.6,28.8v56.6h-30.4
				v-9.6c-5.6,7.2-13.3,11.5-24.1,11.5C691.1,162.2,679,151.9,679,133.5z M731.1,128.3v-7c-2.6-1.2-6.6-2.3-10.7-2.3
				c-7.7,0-12.2,4.5-12.2,11.7v0.7c0,6.6,4,10.5,9.8,10.7C725.5,142.1,731.1,136.9,731.1,128.3z"/>
			<path class="st0" d="M775.5,65.7h30.8v17.1c4.5-11.7,11.9-19.2,25.2-18.5v33.6h-2.1c-14.9,0-23.1,8.9-23.1,27.8v34.6h-30.8V65.7z
				"/>
			<path class="st0" d="M834.7,149.4l11.5-20.4c9.3,6.5,19,10.3,27.4,10.3c5.2,0,7.7-2.3,7.7-5.2v-0.3c0-3.7-4.4-5.4-13.8-9.1
				c-16.6-6.1-28.8-12.8-28.8-29.9v-0.3c0-19.1,14.5-30.4,35.1-30.4c11.7,0,24.1,3.3,34.6,10.1l-11.2,20.8c-7.5-4.7-16.4-8-23.2-8
				c-4.9,0-7.2,2.3-7.2,4.9v0.3c0,3.5,4.7,5.4,14,9.3c17.1,6.5,28.7,13.5,28.7,29.5v0.3c0,19.7-14.3,30.9-35.7,30.9
				C860.9,162.2,847,158.5,834.7,149.4z"/>
		</g>
	</g>
	<g>
		<polygon class="st1" points="171.8,50.5 122.2,50.5 115,27.1 92.4,24.6 106.8,69.9 180.9,70.1 		"/>
		<polygon class="st2" points="158.7,93.6 154.1,71.4 115.5,99 138,169.5 153.9,154.9 138.7,107.7 		"/>
		<polygon class="st3" points="89.1,116.1 29.1,159.5 47.9,170 88,140.8 107.7,155.5 127.3,144.2 		"/>
		<polygon class="st4" points="4.6,54.1 0,75.3 39.6,105.1 31.3,128.2 47.8,143.7 63.6,98.9 		"/>
		<polygon class="st5" points="76.5,2.4 60.8,49.4 36.3,48.9 26.9,69.5 74.3,70.2 97.9,0 		"/>
	</g>
</g>
<rect x="1362.5" y="-29.6" class="st6" width="1500" height="248.2"/>
</svg>
