<?xml version="1.0" encoding="utf-8"?>
<!-- Generator: Adobe Illustrator 27.4.1, SVG Export Plug-In . SVG Version: 6.00 Build 0)  -->
<svg version="1.1" id="Layer_1" xmlns="http://www.w3.org/2000/svg" xmlns:xlink="http://www.w3.org/1999/xlink" x="0px" y="0px"
	 viewBox="0 0 100 100" style="enable-background:new 0 0 100 100;" xml:space="preserve">
<style type="text/css">
	.st0{fill:#7FB44C;}
	.st1{fill:#F49738;}
	.st2{fill:#6699CB;}
</style>
<image style="display:none;overflow:visible;" width="184" height="86" xlink:href="38C8373.jpg"  transform="matrix(0.4698 0 0 0.4698 6.5934 29.8502)">
</image>
<path class="st0" d="M4,63.4V36.7l2-2h7.7l9.4,9.4v-7.3l2.1-2.1h7.7l1.7,1.7v27l-1.9,1.9h-7.4l-9.8-9.8v7.9l-1.9,1.9H6.1L4,63.4z"/>
<path class="st1" d="M34.6,48.3V36.5l2.1-2.1H44l2.4,2.4v3.8l3.6,3.3l4-3.3l0,0v-3.8l2.2-2.2h7.6l1.9,1.9v11.9l-9.4,9.4v5.7
	l-2.1,2.1h-7.7l-2.2-2.2v-5.6L34.6,48.3z"/>
<path class="st2" d="M65.6,40.2l5.6-5.6h19.2l5.9,5.9v5.8l-1.9,1.9H85v-2h-8.1v7.3H85v-1.9h9.4l2,2v6.2l-5.7,5.7H71.3l-5.7-5.7
	L65.6,40.2z"/>
</svg>
