<svg width="181" height="170" viewBox="0 0 181 170" fill="none" xmlns="http://www.w3.org/2000/svg">
<path d="M171.8 50.5001H122.2L115 27.1001L92.4004 24.6001L106.8 69.9001L180.9 70.1001L171.8 50.5001Z" fill="#FDCD21"/>
<path d="M158.7 93.5999L154.1 71.3999L115.5 98.9999L138 169.5L153.9 154.9L138.7 107.7L158.7 93.5999Z" fill="#218A1F"/>
<path d="M89.0996 116.1L29.0996 159.5L47.8996 170L87.9996 140.8L107.7 155.5L127.3 144.2L89.0996 116.1Z" fill="#61BAFD"/>
<path d="M4.6 54.1001L0 75.3001L39.6 105.1L31.3 128.2L47.8 143.7L63.6 98.9001L4.6 54.1001Z" fill="#FF8C2B"/>
<path d="M76.5004 2.4L60.8004 49.4L36.3004 48.9L26.9004 69.5L74.3004 70.2L97.9004 0L76.5004 2.4Z" fill="#D32629"/>
</svg>
